<?xml version="1.0" encoding="UTF-8"?>
<svg width="36px" height="36px" viewBox="0 0 36 36" version="1.1" xmlns="http://www.w3.org/2000/svg" xmlns:xlink="http://www.w3.org/1999/xlink">
    <title>ic_QR code</title>
    <g id="页面-1" stroke="none" stroke-width="1" fill="none" fill-rule="evenodd">
        <g id="8.0切图" transform="translate(-1133.000000, -99.000000)" fill="#FFFFFF" fill-rule="nonzero">
            <g id="二维码" transform="translate(1133.000000, 99.000000)">
                <rect id="矩形" opacity="0" x="0" y="0" width="36" height="36"></rect>
                <path d="M9,9 L11.5714336,9 L11.5714336,11.5714336 L9,11.5714336 L9,9 Z M29.5714336,29.5714336 L32.1428672,29.5714336 L32.1428672,32.1428672 L29.5714336,32.1428672 L29.5714336,29.5714336 Z M29.5714336,24.4285664 L27,24.4285664 L27,19.2856992 L19.2856992,19.2856992 L19.2856992,32.1428672 L21.8571328,32.1428672 L21.8571328,21.8571328 L24.4285664,21.8571328 L24.4285664,27 L32.1428672,27 L32.1428672,19.2856992 L29.5714336,19.2856992 L29.5714336,24.4285664 Z" id="形状"></path>
                <path d="M24.4285664,29.5714336 L27,29.5714336 L27,32.1428672 L24.4285664,32.1428672 L24.4285664,29.5714336 Z M3.85713281,16.7143359 L16.7143359,16.7143359 L16.7143359,3.85713281 L3.85713281,3.85713281 L3.85713281,16.7143359 L3.85713281,16.7143359 Z M6.42856641,6.42856641 L14.1428672,6.42856641 L14.1428672,14.1428672 L6.42856641,14.1428672 L6.42856641,6.42856641 Z M9,24.4285664 L11.5714336,24.4285664 L11.5714336,27 L9,27 L9,24.4285664 Z" id="形状"></path>
                <path d="M3.85713281,32.1428672 L16.7143359,32.1428672 L16.7143359,19.2856641 L3.85713281,19.2856641 L3.85713281,32.1428672 L3.85713281,32.1428672 Z M6.42856641,21.8571328 L14.1428672,21.8571328 L14.1428672,29.5714336 L6.42856641,29.5714336 L6.42856641,21.8571328 L6.42856641,21.8571328 Z M24.4285664,9 L27,9 L27,11.5714336 L24.4285664,11.5714336 L24.4285664,9 L24.4285664,9 Z" id="形状"></path>
                <path d="M19.2856641,3.85713281 L19.2856641,16.7143359 L32.1428672,16.7143359 L32.1428672,3.85713281 L19.2856641,3.85713281 L19.2856641,3.85713281 Z M29.5714336,14.1428672 L21.8571328,14.1428672 L21.8571328,6.42856641 L29.5714336,6.42856641 L29.5714336,14.1428672 Z" id="形状"></path>
            </g>
        </g>
    </g>
</svg>